<?xml version="1.0" encoding="utf-8"?>
<!-- Generator: Adobe Illustrator 16.0.3, SVG Export Plug-In . SVG Version: 6.00 Build 0)  -->
<!DOCTYPE svg PUBLIC "-//W3C//DTD SVG 1.1//EN" "http://www.w3.org/Graphics/SVG/1.1/DTD/svg11.dtd">
<svg version="1.1" id="Layer_1" xmlns="http://www.w3.org/2000/svg" xmlns:xlink="http://www.w3.org/1999/xlink" x="0px" y="0px"
	 width="184.252px" height="184.252px" viewBox="0 0 184.252 184.252" enable-background="new 0 0 184.252 184.252"
	 xml:space="preserve">
<g>
	<path fill="#4E64AE" d="M184.252,178.584c0,3.131-2.537,5.668-5.669,5.668H5.67c-3.132,0-5.67-2.537-5.67-5.668V5.67
		C0,2.538,2.538,0,5.67,0h172.913c3.132,0,5.669,2.538,5.669,5.67V178.584z"/>
	<g>
		<g>
			<rect x="7.566" y="7.242" fill="#4E64AE" width="169.978" height="169.984"/>
		</g>
		<g>
			<g>
				<path fill="#FFFFFF" d="M157.045,91.875c0-8.633-6.278-15.839-14.677-17.669v-7.5c0-13.924-11.323-25.248-25.244-25.248h-8.322
					V38.47c0-11.507-9.325-20.836-20.833-20.836H61.274c-11.51,0-20.84,9.329-20.84,20.836v113.175h-4.768
					c-4.192,0-7.602,3.4-7.602,7.596c0,4.193,3.409,7.596,7.602,7.596h4.768h68.367h4.776c4.192,0,7.596-3.402,7.596-7.596
					c0-4.195-3.403-7.596-7.596-7.596h-4.776V50.28h8.322c9.058,0,16.424,7.367,16.424,16.426v7.611
					c-8.165,1.99-14.219,9.08-14.219,17.558v5.387h8.085v12.014c0,1.729,1.398,3.129,3.125,3.129c1.728,0,3.126-1.4,3.126-3.129
					V97.262h9.044v12.014c0,1.729,1.396,3.129,3.123,3.129c1.726,0,3.123-1.4,3.123-3.129V97.262h8.09V91.875z"/>
			</g>
			<g>
				<g>
					<path fill="#4E64AE" d="M59.171,131.682v-7.932h30.902v7.932H59.171z"/>
				</g>
			</g>
			<g>
				<path fill="#4E64AE" d="M97.653,87.335c0,5.752-4.667,10.419-10.418,10.419H62.008c-5.755,0-10.417-4.667-10.417-10.419V41.772
					c0-5.752,4.662-10.417,10.417-10.417h25.228c5.751,0,10.418,4.665,10.418,10.417V87.335z"/>
			</g>
			<g>
				<g>
					<path fill="#FFFFFF" d="M70.738,76.033V64.546H59.16v-7.93h11.578V45.132h7.719v11.484h11.607v7.93H78.457v11.487H70.738z"/>
				</g>
			</g>
		</g>
	</g>
</g>
</svg>
